<svg xmlns="http://www.w3.org/2000/svg" width="630" height="630" viewBox="0 0 630 630">
  <defs>
    
  <filter id="g1" x="-40%" y="-40%" width="180%" height="180%">
    <feGaussianBlur in="SourceGraphic" stdDeviation="6" result="blur"/>
    <feFlood flood-color="#ffffff" flood-opacity="0.8" result="color"/>
    <feComposite in="color" in2="blur" operator="in" result="glow"/>
    <feMerge><feMergeNode in="glow"/><feMergeNode in="SourceGraphic"/></feMerge>
  </filter>
    
  <filter id="ts" x="-30%" y="-30%" width="160%" height="160%">
    <feGaussianBlur in="SourceAlpha" stdDeviation="20" result="blur"/>
    <feFlood flood-color="#000000" flood-opacity="0.95" result="color"/>
    <feComposite in="color" in2="blur" operator="in" result="shadow"/>
    <feMerge><feMergeNode in="shadow"/><feMergeNode in="SourceGraphic"/></feMerge>
  </filter>
  </defs>
  <rect width="630" height="630" fill="#000"/>
  <g filter="url(#g1)" stroke="#ffffff" stroke-width="1.5" fill="none" opacity="0.7">
    <circle cx="315.0" cy="167.0" r="46"/><circle cx="419.7" cy="210.3" r="46"/><circle cx="463.0" cy="315.0" r="46"/><circle cx="419.7" cy="419.7" r="46"/><circle cx="315.0" cy="463.0" r="46"/><circle cx="210.3" cy="419.7" r="46"/><circle cx="167.0" cy="315.0" r="46"/><circle cx="210.3" cy="210.3" r="46"/>
    <path d="M 315,243 L 387,315 L 315,387 L 243,315 Z"/>
    <path d="M 315,167 Q 347.4420591208388,236.6779408791612 419.651803615609,210.34819638439097 M 419.651803615609,210.34819638439097 Q 393.3220591208388,282.5579408791612 463,315 M 463,315 Q 393.3220591208388,347.4420591208388 419.651803615609,419.651803615609 M 419.651803615609,419.651803615609 Q 347.4420591208388,393.3220591208388 315,463 M 315,463 Q 282.5579408791612,393.3220591208388 210.34819638439097,419.651803615609 M 210.34819638439097,419.651803615609 Q 236.6779408791612,347.4420591208388 167,315 M 167,315 Q 236.67794087916118,282.5579408791612 210.34819638439095,210.34819638439097 M 210.34819638439095,210.34819638439097 Q 282.5579408791612,236.6779408791612 315,167"/>
  </g>
  <text x="315" y="345"
  font-family="'Helvetica Neue', Helvetica, Arial, sans-serif"
  font-size="90" font-weight="700" fill="#ffffff" text-anchor="middle" letter-spacing="-3"
  filter="url(#ts)" >La<tspan fill="#7c3aed">t</tspan>ched</text>
</svg>